<svg version="1.1" id="gear" xmlns="http://www.w3.org/2000/svg" xmlns:xlink="http://www.w3.org/1999/xlink" x="0px" y="0px" width="100%" height="600px" viewBox="0 0 512 512" xml:space="preserve">
<g id="layer1" style="stroke:none">
    <path inkscape:connector-curvature="0" style="fill:#000000;fill-opacity:1;fill-rule:nonzero;stroke:none" id="path437" d="m 101.1768,277.13902 c 2.88419,1.1094 5.56823,2.0474 8.49889,2.9557 -0.49345,4.7005 -0.98389,9.3767 -1.28772,14.1088 3.60776,1.0409 7.20595,1.9346 10.88208,2.7017 1.95638,-4.318 3.37149,-8.8348 5.14591,-13.2147 3.01494,0.572 6.57451,1.2315 8.65831,1.2243 l 0.002,0 c 3.89696,0.6859 6.52271,0.7841 9.58169,0.9353 0.69419,4.6696 1.70209,9.4108 2.58905,14.0717 3.75683,0.1072 7.62513,0.1188 11.38067,-0.058 0.81534,-4.6718 1.5901,-9.3299 2.21464,-14.0087 3.06078,-0.2088 6.14043,-0.5042 9.18054,-0.9234 3.0409,-0.4102 6.08136,-0.9273 9.08899,-1.5425 1.83565,4.3441 3.77129,8.6663 5.78979,12.9518 3.66216,-0.8331 7.29826,-1.8035 10.88967,-2.906 -0.3729,-4.7309 -0.83885,-9.4312 -1.39374,-14.122 2.91299,-0.9624 5.79971,-2.0185 8.64274,-3.1767 2.84458,-1.1515 5.64684,-2.4088 8.40821,-3.7489 2.8541,3.7496 5.79138,7.4564 8.8077,11.1041 3.34205,-1.7116 6.62098,-3.5562 9.83023,-5.511 -1.53005,-4.4886 -3.14107,-8.9291 -4.84294,-13.3338 2.58816,-1.651 5.12048,-3.3943 7.59024,-5.2182 2.47229,-1.8251 4.87733,-3.7345 7.22094,-5.7219 3.6937,2.9236 7.46102,5.7859 11.28622,8.5686 2.81935,-2.4913 5.54267,-5.095 8.16473,-7.7919 -2.59433,-3.9641 -5.25938,-7.86364 -8.00344,-11.70421 2.09776,-2.24512 4.11138,-4.56856 6.05336,-6.94887 1.93251,-2.3883 3.79336,-4.83329 5.56297,-7.3492 4.31311,1.90792 8.66674,3.7274 13.07278,5.46505 2.10579,-3.12193 4.09174,-6.32121 5.9587,-9.58964 -3.50299,-3.18544 -7.06316,-6.29296 -10.67691,-9.3212 1.46799,-2.69921 2.84128,-5.44965 4.12688,-8.24237 1.277,-2.79193 2.47593,-5.62439 3.5649,-8.49517 4.6511,0.77528 9.32067,1.45982 14.02099,2.05396 1.2634,-3.53729 2.40289,-7.12042 3.40494,-10.74627 -4.18316,-2.22262 -8.39165,-4.35287 -12.64285,-6.39956 0.76084,-2.97486 1.41496,-5.98056 1.97154,-9.00313 0.5555,-3.02506 1.01275,-6.06519 1.35809,-9.11735 4.69942,-0.4048 9.39488,-0.90708 14.09544,-1.50329 0.35034,-3.74868 0.55802,-7.51072 0.62697,-11.2744 -4.60464,-1.10549 -9.21753,-2.11415 -13.84163,-3.02921 -0.0116,-3.07311 -0.12176,-6.14538 -0.33998,-9.20907 -0.21692,-3.06737 -0.54074,-6.12188 -0.96209,-9.16628 4.44509,-1.56649 8.87499,-3.22842 13.27192,-4.98251 -0.5947,-3.71588 -1.33254,-7.40591 -2.20233,-11.06149 -4.7368,0.0818 -9.45284,0.25498 -14.16237,0.52452 -0.76962,-2.97261 -1.65062,-5.91538 -2.61729,-8.83063 -0.97154,-2.91314 -2.04117,-5.79332 -3.20732,-8.63372 3.91903,-2.62273 7.80163,-5.33447 11.63013,-8.12143 -1.49304,-3.44839 -3.12169,-6.83668 -4.86755,-10.16395 -4.56717,1.25245 -9.09654,2.59025 -13.59657,4.01885 -1.47999,-2.69073 -3.05925,-5.3239 -4.7157,-7.90787 -1.66237,-2.57977 -3.40839,-5.10446 -5.2428,-7.56744 3.15091,-3.51601 6.24231,-7.0988 9.26097,-10.75159 -2.30261,-2.96918 -4.71916,-5.85336 -7.24004,-8.64016 -4.1142,2.34711 -8.17488,4.77111 -12.17593,7.27239 -2.10324,-2.23566 -4.28604,-4.39526 -6.53669,-6.48129 -2.25536,-2.07938 -4.57332,-4.09353 -6.96391,-6.01683 2.1765,-4.19308 4.26856,-8.43146 6.28541,-12.72815 -2.97623,-2.29783 -6.03766,-4.48283 -9.17608,-6.54948 -3.39962,3.30317 -6.72465,6.66654 -9.97315,10.09053 -2.59616,-1.63379 -5.25015,-3.17726 -7.95061,-4.6326 -2.70268,-1.44973 -5.44901,-2.81862 -8.24407,-4.08315 1.06591,-4.60398 2.03995,-9.2288 2.92624,-13.88993 -3.44681,-1.479 -6.94263,-2.83114 -10.48744,-4.0564 -2.47756,4.04565 -4.86913,8.12219 -7.17703,12.24582 -2.9184,-0.94539 -5.86843,-1.78206 -8.84562,-2.52701 -2.97611,-0.74239 -5.97658,-1.38393 -8.99801,-1.92295 -0.10071,-4.71936 -0.29614,-9.44637 -0.59147,-14.17878 -3.7138,-0.58366 -7.44981,-1.02377 -11.19474,-1.32765 -1.39762,4.53608 -2.69973,9.07797 -3.91021,13.64681 -3.06408,-0.18642 -6.13191,-0.2555 -9.19974,-0.23292 -3.06998,0.0281 -6.1356,0.15798 -9.19535,0.39632 -1.28043,-4.54206 -2.65194,-9.0693 -4.11979,-13.57333 -3.73867,0.36364 -7.46642,0.87115 -11.16591,1.52098 -0.22448,4.73137 -0.34769,9.4644 -0.38301,14.18554 -3.00939,0.58734 -6.00064,1.28382 -8.96855,2.07064 -2.96165,0.7976 -5.90106,1.68303 -8.80504,2.67596 -2.36604,-4.08626 -4.81692,-8.1199 -7.355458,-12.12069 -3.530562,1.28432 -7.014403,2.69514 -10.438389,4.2417 0.955564,4.63947 2.005808,9.25507 3.142443,13.83532 -2.774968,1.31599 -5.50243,2.72956 -8.18163,4.22852 -2.675875,1.50648 -5.307706,3.09258 -7.874541,4.77468 -3.304112,-3.37124 -6.675071,-6.67242 -10.12356,-9.9181 -3.105784,2.11789 -6.135181,4.3508 -9.071959,6.69874 2.077676,4.25622 4.235674,8.46637 6.469348,12.6203 -2.362267,1.96551 -4.655136,4.01004 -6.877782,6.13181 -2.223816,2.11915 -4.370393,4.31825 -6.443477,6.58541 -4.039467,-2.4381 -8.131608,-4.79437 -12.280085,-7.07449 -2.482068,2.83032 -4.858578,5.7536 -7.120777,8.76278 3.074997,3.60372 6.212254,7.13763 9.417605,10.59781 -1.796178,2.49307 -3.504289,5.04939 -5.12644,7.65772 -1.621219,2.61077 -3.159954,5.27224 -4.599134,7.98888 -4.521129,-1.34844 -9.070062,-2.60336 -13.658095,-3.77333 -1.694806,3.3558 -3.265835,6.77411 -4.706533,10.2428 3.877773,2.72163 7.790499,5.3588 11.755508,7.91401 -1.1277,2.85796 -2.144845,5.75869 -3.078488,8.68544 -0.924398,2.93033 -1.758593,5.8893 -2.48853,8.8761 -4.712191,-0.19227 -9.4342873,-0.28821 -14.1684838,-0.2888 -0.818104,3.67202 -1.4988468,7.37623 -2.0403935,11.10307 4.427429,1.67704 8.8724143,3.265 13.3468183,4.75585 -0.380342,3.05113 -0.64868,6.11432 -0.825096,9.18174 -0.165019,3.06976 -0.239086,6.14139 -0.195089,9.21486 C 9.1811744,152.60697 4.5885427,153.69941 0,154.88307 c 0.12642857,3.7642 0.39102266,7.52136 0.80011564,11.25939 4.70163676,0.51546 9.41336136,0.93476 14.11424536,1.25813 0.399218,3.04825 0.893559,6.08117 1.493606,9.09452 0.601265,3.00968 1.29964,6.00473 2.104831,8.96608 -4.220547,2.11619 -8.398994,4.31751 -12.5498559,6.60864 1.0596194,3.60603 2.2445706,7.17294 3.5652235,10.6902 4.6875314,-0.67013 9.3562634,-1.43707 13.9866944,-2.28759 1.142435,2.84786 2.370049,5.66394 3.697626,8.43134 1.323699,2.77187 2.747453,5.49504 4.257197,8.16815 -3.567747,3.09213 -7.074395,6.2579 -10.53478,9.50841 1.919013,3.22947 3.949733,6.39601 6.100259,9.47314 4.377494,-1.81149 8.709324,-3.70946 12.991308,-5.68323 1.809715,2.4785 3.697068,4.90148 5.669042,7.25083 1.971619,2.35557 4.025449,4.63849 6.147749,6.85204 -2.684031,3.8802 -5.298818,7.8288 -7.836227,11.8303 2.659637,2.659 5.422749,5.2122 8.273033,7.6636 3.790313,-2.8496 7.509265,-5.7623 11.166072,-8.7513 2.367092,1.9518 4.809656,3.8159 7.302146,5.5994 l 9.916624,-13.91727 c -4.053931,-2.89615 -7.927196,-6.04965 -11.584168,-9.43437 -3.655956,-3.39272 -7.106369,-7.01023 -10.308491,-10.83405 -3.206016,-3.81896 -6.166364,-7.85375 -8.870033,-12.05178 -2.702911,-4.19999 -5.145248,-8.56808 -7.302495,-13.07605 -2.161547,-4.50755 -4.030798,-9.15226 -5.617286,-13.88773 -1.58015,-4.74137 -2.864828,-9.57903 -3.838185,-14.47976 -0.977508,-4.90022 -1.64564,-9.85802 -1.997475,-14.83731 -0.357268,-4.98141 -0.390298,-9.98333 -0.120643,-14.9662 0.282106,-4.98221 0.872447,-9.94944 1.77419,-14.86086 0.904244,-4.91255 2.11921,-9.76744 3.630023,-14.53711 1.511917,-4.76714 3.324301,-9.45557 5.412645,-14.00186 2.090156,-4.54558 4.459027,-8.95623 7.091533,-13.19822 2.636099,-4.24058 5.540159,-8.31293 8.684129,-12.1882 3.150012,-3.86876 6.538597,-7.54727 10.153295,-10.99237 3.608469,-3.44547 7.438667,-6.66749 11.456999,-9.63331 4.017331,-2.96827 8.221471,-5.68293 12.581264,-8.12679 4.36013,-2.43958 8.864479,-4.61698 13.494669,-6.49548 4.62871,-1.88536 9.37282,-3.47174 14.19804,-4.76191 4.82313,-1.28475 9.72449,-2.27656 14.66759,-2.94575 4.94411,-0.67712 9.92745,-1.0305 14.91163,-1.07916 4.9857,-0.0419 9.97055,0.23085 14.91841,0.81444 4.95004,0.58869 9.86253,1.49004 14.70323,2.6953 4.83942,1.20876 9.60828,2.72386 14.27393,4.52217 4.6631,1.80999 9.21108,3.89644 13.60388,6.26053 4.39271,2.36422 8.63286,5.00487 12.68858,7.90172 4.05572,2.89681 7.92715,6.04966 11.58703,9.43756 3.65556,3.38837 7.10428,7.0051 10.30556,10.83082 3.20723,3.82153 6.16645,7.85372 8.87267,12.05067 2.69958,4.20294 5.14269,8.56915 7.29929,13.0789 2.16465,4.50476 4.03392,9.14942 5.61902,13.88854 1.58075,4.73955 2.86676,9.57963 3.84062,14.47858 0.97574,4.89956 1.64569,9.85805 1.9968,14.8392 0.358,4.97954 0.39173,9.97966 0.1196,14.96359 -0.28013,4.98299 -0.87053,9.95024 -1.77408,14.86093 -0.90359,4.9107 -2.11746,9.76811 -3.62828,14.53776 -1.51192,4.76715 -3.32433,9.45561 -5.41263,14.0019 -2.09015,4.54556 -4.45904,8.95633 -7.0933,13.19761 -2.63679,4.24226 -5.5408,8.31465 -8.68495,12.18988 -3.14997,3.86882 -6.53854,7.54732 -10.15251,10.99049 -3.60923,3.44726 -7.43874,6.66757 -11.45706,9.63327 -4.0161,2.97098 -8.22398,5.68418 -12.58008,8.12938 -4.36012,2.4397 -8.86877,4.6174 -13.49829,6.4942 -4.62801,1.8836 -9.37281,3.4717 -14.19623,4.7626 -4.82497,1.2839 -9.72628,2.2759 -14.6694,2.9451 -4.94091,0.6741 -10.22909,0.9116 -15.21398,0.962 -4.98389,0.043 -10.00675,-0.2448 -15.22185,-0.9338 l -6.9e-4,0 c -3.62422,-0.077 -9.3665,-1.2982 -14.20729,-2.5032 -4.83867,-1.2107 -9.61112,-2.7272 -13.93818,-4.3946 -5.7639,-2.2356 -9.323414,-3.9397 -13.716878,-6.3021 -4.392752,-2.3642 -8.68821,-5.0283 -12.746472,-7.92407 l -9.943797,13.90667 c 2.498235,1.7796 5.016727,3.4687 7.629509,5.0757 -1.6332,4.4345 -3.171389,8.9037 -4.628102,13.415 3.240163,1.9057 6.551396,3.6868 9.918952,5.3438 2.957805,-3.7054 6.02441,-7.3853 8.822435,-11.1944 2.784941,1.2962 5.780012,2.5547 8.660003,3.675 z"></path>
  </g>
  <rect style="color:#000000;fill:none;stroke:#f12b2b;stroke-width:1;stroke-linecap:square;stroke-linejoin:miter;stroke-miterlimit:4;stroke-opacity:1;stroke-dasharray:none;stroke-dashoffset:0;marker:none;visibility:visible;display:inline;overflow:visible;enable-background:accumulate" id="rect2989" width="300.0" height="300.0" x="0.0" y="0.0"></rect>
</svg>